<?xml version="1.0" encoding="UTF-8"?><svg xmlns="http://www.w3.org/2000/svg" xmlns:xlink="http://www.w3.org/1999/xlink" height="256.3" preserveAspectRatio="xMidYMid meet" version="1.1" viewBox="91.8 84.4 241.5 256.3" width="241.5" zoomAndPan="magnify">
 <g id="surface1">
  <g><path d="m157.56 153.77c-2.29 0.83-4.81-0.36-5.64-2.65-0.83-2.28 0.36-4.82 2.65-5.64l20.42-7.37c2.29-0.83 4.82 0.36 5.64 2.65 0.83 2.29-0.36 4.81-2.65 5.64l-20.42 7.37" fill="#f9ae8f"/></g>
  <g><path d="m180.63 140.76c-0.82-2.29-3.35-3.48-5.64-2.65l-13.38 4.83c2.62 2.18 3.2 5.54 2.34 8.52l14.03-5.06c2.29-0.83 3.48-3.35 2.65-5.64" fill="#96ddf8"/></g>
  <g><path d="m133.08 149.68c-2.39-0.47-3.94-2.79-3.47-5.17 0.47-2.39 2.79-3.95 5.18-3.47l21.3 4.2c2.39 0.47 3.94 2.79 3.47 5.18s-2.79 3.94-5.18 3.47l-21.3-4.21" fill="#f9ae8f"/></g>
  <g><path d="m181.77 196.27c2.64 4.05 8.08 5.19 12.12 2.54 4.06-2.65 5.2-8.08 2.55-12.13l-23.61-36.13c-2.64-4.05-8.08-5.19-12.13-2.54-4.05 2.64-5.18 8.08-2.54 12.13l23.61 36.13" fill="#f9ae8f"/></g>
  <g><path d="m188.07 174.69l0.21-0.51-15.45-23.63c-2.64-4.05-8.08-5.19-12.13-2.54-4.05 2.64-5.18 8.08-2.54 12.13l14.36 21.98c4.94-2.97 10.14-5.46 15.55-7.43" fill="#54c1ba"/></g>
  <g><path d="m154.62 149.24h-14.67v-15.81h14.67v15.81" fill="#e29779"/></g>
  <g><path d="m131.32 118.85c0 2.32-1.88 4.2-4.2 4.2-2.31 0-4.19-1.88-4.19-4.2v-1.66c0-2.31 1.88-4.19 4.19-4.19 2.32 0 4.2 1.88 4.2 4.19v1.66" fill="#e29779"/></g>
  <g><path d="m171.98 118.85c0 2.32-1.88 4.2-4.19 4.2-2.32 0-4.2-1.88-4.2-4.2v-1.66c0-2.31 1.88-4.19 4.2-4.19 2.31 0 4.19 1.88 4.19 4.19v1.66" fill="#e29779"/></g>
  <g><path d="m167.78 120.84c0 11.32-9.17 20.5-20.49 20.5s-20.5-9.18-20.5-20.5v-15.68c0-11.324 9.18-20.5 20.5-20.5s20.49 9.176 20.49 20.5v15.68" fill="#f9ae8f"/></g>
  <g><path d="m159.66 114.39c-0.18 0-0.35-0.06-0.5-0.17-2.89-2.22-5.55-0.11-5.66-0.02-0.35 0.28-0.85 0.23-1.14-0.11-0.28-0.35-0.22-0.86 0.12-1.14 1.29-1.05 4.55-2.4 7.67-0.02 0.35 0.28 0.42 0.78 0.15 1.14-0.16 0.2-0.4 0.32-0.64 0.32" fill="#6d2c34"/></g>
  <g><path d="m158.2 117.44c0 1.01-0.84 1.83-1.88 1.83-1.03 0-1.87-0.82-1.87-1.83s0.84-1.83 1.87-1.83c1.04 0 1.88 0.82 1.88 1.83" fill="#341314"/></g>
  <g><path d="m134.92 114.39c0.17 0 0.34-0.06 0.49-0.17 2.89-2.22 5.55-0.11 5.66-0.02 0.35 0.28 0.86 0.23 1.14-0.11 0.28-0.35 0.23-0.86-0.12-1.14-1.29-1.05-4.55-2.4-7.66-0.02-0.36 0.28-0.42 0.78-0.15 1.14 0.16 0.2 0.4 0.32 0.64 0.32" fill="#6d2c34"/></g>
  <g><path d="m136.7 117.44c0 1.01 0.84 1.83 1.87 1.83 1.04 0 1.88-0.82 1.88-1.83s-0.84-1.83-1.88-1.83c-1.03 0-1.87 0.82-1.87 1.83" fill="#341314"/></g>
  <g><path d="m145.77 124.04h3.04l-1.59 1.58z" fill="#e29779"/></g>
  <g><path d="m147.29 84.445c-11.48 0-20.77 9.301-20.77 20.775v11.1h4.59v-9.34c0-3.69 1.25-7.085 3.34-9.808 1.46 2.465 6.64 4.288 12.84 4.288 6.19 0 11.38-1.823 12.84-4.292 2.08 2.727 3.33 6.122 3.33 9.812v9.34h4.6v-11.1c0-11.474-9.3-20.775-20.77-20.775" fill="#6d2c34"/></g>
  <g><path d="m171.23 228.96l4.97-66.14c0-17.89-12.95-19.28-28.93-19.28h-1.67c-15.98 0-28.93 1.39-28.93 19.28l5.25 66.14h49.31" fill="#f9ae8f"/></g>
  <g><path d="m94.516 186.72c-2.727 3.99-1.696 9.45 2.304 12.17 4 2.73 9.45 1.7 12.18-2.3l24.31-35.66c2.72-4 1.69-9.45-2.31-12.18s-9.45-1.7-12.18 2.31l-24.304 35.66" fill="#f9ae8f"/></g>
  <g><path d="m92.406 235.9c-0.277 4.83 1.262 8.94 6.098 9.22 4.826 0.27 7.176-3.56 7.456-8.39l4.25-42.95c0.27-4.83-3.42-8.98-8.25-9.25-4.831-0.28-8.972 3.42-9.245 8.25l-0.309 43.12" fill="#f9ae8f"/></g>
  <g><path d="m116.86 184.26h0.55l15.9-23.33c2.72-4 1.69-9.45-2.31-12.18s-9.45-1.7-12.18 2.31l-14.78 21.69c4.63 3.42 8.92 7.27 12.82 11.51" fill="#54c1ba"/></g>
  <g><path d="m171.23 228.96l4.97-66.14c0-14.63-8.65-18.23-20.54-19.05 0 0-0.29 6.58-7.94 6.58s-8.01-6.72-8.01-6.72c-13.15 0.52-23.04 3.55-23.04 19.19l5.25 66.14h49.31" fill="#54c1ba"/></g>
  <g><path d="m171.23 228.96h-49.23c0.02 0.66 0.08 1.27 0.14 1.89l-0.14-0.09-5.21 104.83h25.05l4.64-85.64 4.64 85.64h25.04l-4.93-104.83-0.14 0.09c0.05-0.62 0.12-1.23 0.14-1.89" fill="#501f23"/></g>
  <g><path d="m177.1 340.73c0.1-0.67 0.17-1.35 0.17-2.04 0-7.45-6.04-13.49-13.48-13.49-7.45 0-13.48 6.04-13.48 13.49 0 0.69 0.07 1.37 0.17 2.04h26.62" fill="#131517"/></g>
  <g><path d="m142.24 340.73c0.1-0.67 0.17-1.35 0.17-2.04 0-7.45-6.03-13.49-13.48-13.49s-13.48 6.04-13.48 13.49c0 0.69 0.07 1.37 0.17 2.04h26.62" fill="#131517"/></g>
  <g><path d="m222.73 207.36c-3.6 0.46-6.88-2.09-7.33-5.68s2.09-6.87 5.68-7.32l32.03-4.04c3.6-0.45 6.88 2.09 7.33 5.68s-2.09 6.88-5.68 7.33l-32.03 4.03" fill="#f9ae8f"/></g>
  <g><path d="m310.69 163.73c-0.46-2.35 1.02-4.2 1.33-6.39 0.3-2.14 0.16-5.73-0.29-7.87-1.12-5.25-2.85-9.66-2.85-11.82 0-2.67 3.52-9.27-1.69-19.15-1.23-2.34-2.97 5.2-3.59 2.84h-1.18c-2.97 0-6.11 0.06-8.72 1.48-4.27 2.32-6.11 6.57-7.05 11.08-0.94-4.51-2.78-8.76-7.05-11.08-2.61-1.42-5.75-1.48-8.72-1.48h-1.18c-0.62 2.36-2.82-6.36-4-3.99-4.53 9.1-1.01 13.83-1.63 18.6-0.61 4.78-1.71 11.24-2.5 13.52-0.71 2.07-0.59 5.73-0.29 7.87 0.31 2.19 1.79 4.04 1.33 6.39-0.84 4.26-4.31 8.5-2.97 13.11 0.72 2.46 1.67 3.79 1.52 6.41-0.12 2.05-0.45 3.78 0.42 5.7 0.87 1.91 2.43 3.97 4.12 5.22 1.4 1.06 2.28 0.76 3.96 1.02 2.81 0.42 6.88 3.95 9.25 1.38 1.15-1.25 4.24 0.94 7.52 0.93 3.3 0 6.8-2.19 7.96-0.93 2.37 2.57 6.44-0.96 9.25-1.38 1.68-0.26 2.56 0.04 3.97-1.02 1.68-1.25 3.24-3.31 4.11-5.22 0.87-1.92 0.54-3.65 0.42-5.7-0.15-2.62 0.81-3.95 1.52-6.41 1.34-4.61-2.13-8.85-2.97-13.11" fill="#b16e30"/></g>
  <g><path d="m272.19 136.71c0 2.11-1.71 3.83-3.83 3.83-2.11 0-3.82-1.72-3.82-3.83v-1.52c0-2.11 1.71-3.82 3.82-3.82 2.12 0 3.83 1.71 3.83 3.82v1.52" fill="#e29779"/></g>
  <g><path d="m308.32 136.71c0 2.11-1.71 3.83-3.83 3.83-2.11 0-3.83-1.72-3.83-3.83v-1.52c0-2.11 1.72-3.82 3.83-3.82 2.12 0 3.83 1.71 3.83 3.82v1.52" fill="#e29779"/></g>
  <g><path d="m292.06 158.95h-11.26v-12.13h11.26v12.13" fill="#e29779"/></g>
  <g><path d="m304.53 134.74c0 10-8.1 18.1-18.1 18.1s-18.1-8.1-18.1-18.1v-13.85c0-9.99 8.1-18.09 18.1-18.09s18.1 8.1 18.1 18.09v13.85" fill="#f9ae8f"/></g>
  <g><path d="m301.23 106.9c11.35 6.73 3.2 29.56 3.2 29.56s-8.88-9.2-10.5-20.72c0 0 1.71 9.21-10.94 12.19 0 0 6.56-8.93 4.38-12.19 0 0-6.17 9.02-16.63 11.23 0 0-0.44 5.33-2.36 9.43 0 0-10.12-19.03 5.2-31.12 0 0 10.58-8.491 27.65 1.62" fill="#b16e30"/></g>
  <g><path d="m266.27 198.7c-1.49 3.57-5.59 5.25-9.15 3.75-3.57-1.49-5.24-5.59-3.75-9.16l13.33-31.77c1.49-3.57 5.59-5.25 9.16-3.75 3.56 1.49 5.24 5.59 3.74 9.16l-13.33 31.77" fill="#ef334c"/></g>
  <g><path d="m266.68 195.13c-0.49-3.83-3.99-6.55-7.82-6.07l-29.1 3.67-0.72 14.2 31.57-3.98c3.83-0.49 6.55-3.99 6.07-7.82" fill="#ef334c"/></g>
  <g><path d="m306.91 212.41c-3.99-9.82-7.64 1.98-20.26 1.98s-17.65-12.49-20.6-1.98c-2.94 10.51-1.14 126.82-1.14 126.82h18.14l3.36-100.27 3.37 100.27h18.14c0.08-19.89 2.98-117-1.01-126.82" fill="#43435a"/></g>
  <g><path d="m315.6 195.07c2.46 2.98 6.87 3.4 9.85 0.94s3.4-6.87 0.94-9.85l-21.94-26.57c-2.46-2.98-6.87-3.4-9.85-0.94s-3.4 6.87-0.94 9.85l21.94 26.57" fill="#ef334c"/></g>
  <g><path d="m306.58 171.94c-0.43-16.11-9.04-17.44-19.63-17.44h-1.14c-10.58 0-19.2 1.33-19.62 17.44h40.39" fill="#f9ae8f"/></g>
  <g><path d="m266.05 212.41s5.35 5.3 21.26 5.3c15.9 0 19.6-5.3 19.6-5.3-2.09-9.87 1.04-39.24 1.04-39.24 0-14.16-6.27-17.64-14.89-18.44 0 0-1.67 6.06-6.68 6.06-5 0-5.49-6.15-5.49-6.15-9.21 0.59-16.07 3.73-16.07 18.53 0 0 3.63 25.81 1.23 39.24" fill="#ef334c"/></g>
  <g><path d="m318.89 226.67c0.49 3.84 3.99 6.55 7.83 6.06 3.83-0.5 6.54-4 6.05-7.84l-4.38-34.18c-0.49-3.83-4-6.53-7.83-6.05-3.83 0.5-6.54 4-6.04 7.83l4.37 34.18" fill="#f9ae8f"/></g>
  <g><path d="m332.23 220.7l-3.84-29.99c-0.49-3.83-4-6.53-7.83-6.05-3.83 0.5-6.54 4-6.04 7.83l4 31.26 13.71-3.05" fill="#ef334c"/></g>
  <g><path d="m309.85 340.75c0.08-0.5 0.13-1.01 0.13-1.54 0-5.61-4.55-10.16-10.17-10.16-5.61 0-10.16 4.55-10.16 10.16 0 0.53 0.05 1.04 0.13 1.54h20.07" fill="#131517"/></g>
  <g><path d="m282.06 340.75c0.08-0.5 0.13-1.01 0.13-1.54 0-5.61-4.55-10.16-10.17-10.16-5.61 0-10.16 4.55-10.16 10.16 0 0.53 0.05 1.04 0.12 1.54h20.08" fill="#131517"/></g>
  <g><path d="m298.09 131.88c-0.17 0-0.34-0.05-0.49-0.16-2.89-2.22-5.55-0.11-5.66-0.02-0.35 0.28-0.85 0.23-1.14-0.11-0.28-0.35-0.23-0.86 0.12-1.14 1.29-1.05 4.55-2.4 7.67-0.02 0.35 0.28 0.42 0.78 0.14 1.14-0.16 0.2-0.39 0.31-0.64 0.31" fill="#985d28"/></g>
  <g><path d="m296.64 134.94c0 1.01-0.84 1.83-1.88 1.83s-1.88-0.82-1.88-1.83 0.84-1.83 1.88-1.83 1.88 0.82 1.88 1.83" fill="#341314"/></g>
  <g><path d="m273.36 131.88c0.17 0 0.34-0.05 0.48-0.16 2.9-2.22 5.56-0.11 5.67-0.02 0.35 0.28 0.85 0.23 1.13-0.11 0.29-0.35 0.24-0.86-0.11-1.14-1.29-1.05-4.55-2.4-7.67-0.02-0.35 0.28-0.42 0.78-0.15 1.14 0.16 0.2 0.4 0.31 0.65 0.31" fill="#985d28"/></g>
  <g><path d="m275.14 134.94c0 1.01 0.84 1.83 1.87 1.83 1.04 0 1.88-0.82 1.88-1.83s-0.84-1.83-1.88-1.83c-1.03 0-1.87 0.82-1.87 1.83" fill="#341314"/></g>
  <g><path d="m284.66 138.21h3.04l-1.59 1.59z" fill="#e29779"/></g>
  <g><path d="m238.64 255.78c1.43 2.5 4.63 3.37 7.13 1.93 2.51-1.43 3.37-4.62 1.94-7.13l-12.8-22.35c-1.43-2.5-4.63-3.37-7.13-1.94-2.51 1.44-3.38 4.64-1.94 7.14l12.8 22.35" fill="#f9ae8f"/></g>
  <g><path d="m263.9 270.89c2.52 1.41 5.71 0.5 7.12-2.02s0.5-5.71-2.02-7.12l-22.48-12.55c-2.52-1.41-5.71-0.51-7.12 2.01s-0.51 5.71 2.02 7.12l22.48 12.56" fill="#f9ae8f"/></g>
  <g><path d="m227.78 226.29c-2.51 1.44-3.38 4.64-1.94 7.14l9.7 16.94c3.04-1.83 6.24-3.21 9.51-4.44l-10.14-17.7c-1.43-2.5-4.63-3.37-7.13-1.94" fill="#3d3c50"/></g>
  <g><path d="m189.84 139.37h-7.77v-8.37h7.77v8.37" fill="#e29779"/></g>
  <g><path d="m194.24 103.96s2.88-7.847 12.12-3.25c0 0 5.62 3.36 2.91 15.25 0 0-3.87 12.52 1.1 14.3 0 0-6.32 0.04-6.89-6.38 0 0 1.25 5.63 2.56 6 0 0-7.71-3-5.06-12.55 0 0 6.48-14.07-2.37-11.63l-4.37-1.74" fill="#b16e30"/></g>
  <g><path d="m177.67 103.96s-2.88-7.847-12.12-3.25c0 0-5.61 3.36-2.91 15.25 0 0 3.87 12.52-1.1 14.3 0 0 6.32 0.04 6.9-6.38 0 0-1.26 5.63-2.57 6 0 0 7.72-3 5.06-12.55 0 0-6.48-14.07 2.37-11.63l4.37-1.74" fill="#b16e30"/></g>
  <g><path d="m176.33 121.3c0 1.47-1.18 2.65-2.64 2.65s-2.64-1.18-2.64-2.65v-1.04c0-1.46 1.18-2.64 2.64-2.64s2.64 1.18 2.64 2.64v1.04" fill="#e29779"/></g>
  <g><path d="m201.28 121.3c0 1.47-1.18 2.65-2.64 2.65s-2.64-1.18-2.64-2.65v-1.04c0-1.46 1.18-2.64 2.64-2.64s2.64 1.18 2.64 2.64v1.04" fill="#e29779"/></g>
  <g><path d="m198.64 122.69c0 6.9-5.6 12.5-12.5 12.5s-12.5-5.6-12.5-12.5v-9.57c0-6.9 5.6-12.49 12.5-12.49s12.5 5.59 12.5 12.49v9.57" fill="#f9ae8f"/></g>
  <g><path d="m198.64 103.08s-7.55-9.529-12.53-6.139c-4.97-3.39-12.52 6.139-12.52 6.139-6.34 3.08 0 16.11 0 16.11v1.39c2.8-0.62 1.51-4.67 1.51-4.67 2.88-1.5 3.97-6.27 3.97-6.27 1.52 2.19-0.67 4.58-0.67 4.58 4.51-0.91 6.85-5.27 7.71-7.31 0.87 2.04 3.21 6.4 7.72 7.31 0 0-2.19-2.39-0.67-4.58 0 0 1.09 4.77 3.97 6.27 0 0-0.93 4.19 1.51 4.67v-1.39s6.34-13.03 0-16.11" fill="#b16e30"/></g>
  <g><path d="m195.34 118.81c-0.14 0-0.28-0.04-0.4-0.13-2.36-1.81-4.53-0.09-4.62-0.02-0.28 0.23-0.7 0.2-0.93-0.09-0.23-0.28-0.19-0.7 0.1-0.93 1.05-0.85 3.71-1.96 6.25-0.01 0.29 0.22 0.35 0.64 0.12 0.92-0.13 0.17-0.32 0.26-0.52 0.26" fill="#b16e30"/></g>
  <g><path d="m194.15 121.3c0 0.82-0.68 1.49-1.53 1.49-0.84 0-1.53-0.67-1.53-1.49s0.69-1.49 1.53-1.49c0.85 0 1.53 0.67 1.53 1.49" fill="#341314"/></g>
  <g><path d="m176.3 118.81c0.13 0 0.27-0.04 0.39-0.13 2.36-1.81 4.54-0.09 4.63-0.02 0.28 0.23 0.69 0.2 0.92-0.09 0.23-0.28 0.19-0.7-0.1-0.93-1.05-0.85-3.71-1.96-6.25-0.01-0.29 0.22-0.34 0.64-0.12 0.92 0.13 0.17 0.32 0.26 0.53 0.26" fill="#b16e30"/></g>
  <g><path d="m177.75 121.3c0 0.82 0.68 1.49 1.53 1.49 0.84 0 1.53-0.67 1.53-1.49s-0.69-1.49-1.53-1.49c-0.85 0-1.53 0.67-1.53 1.49" fill="#341314"/></g>
  <g><path d="m184.01 126.68h2.48l-1.3 1.3z" fill="#e29779"/></g>
  <g><path d="m209.75 158.56c1.96 1.44 4.72 1.01 6.16-0.95s1.02-4.72-0.95-6.16l-17.51-12.84c-1.96-1.44-4.72-1.01-6.16 0.95s-1.02 4.72 0.95 6.16l17.51 12.84" fill="#ef334c"/></g>
  <g><path d="m234.39 161.55c2.42 0.23 4.57-1.56 4.79-3.98 0.22-2.43-1.56-4.57-3.99-4.8l-21.62-1.98c-2.43-0.22-4.57 1.57-4.79 3.99-0.23 2.43 1.56 4.57 3.99 4.79l21.62 1.98" fill="#f9ae8f"/></g>
  <g><path d="m209.75 158.56c1.96 1.44 4.72 1.01 6.16-0.95s1.02-4.72-0.95-6.16l-17.51-12.84c-1.96-1.44-4.72-1.01-6.16 0.95s-1.02 4.72 0.95 6.16l17.51 12.84" fill="#f9ae8f"/></g>
  <g><path d="m192.57 140.51c1.43-1.96 4.19-2.39 6.16-0.96l11.48 8.39c-3.12 1.36-4.62 4.43-4.64 7.53l-12.04-8.8c-1.97-1.43-2.4-4.19-0.96-6.16" fill="#96ddf8"/></g>
  <g><path d="m195.85 167.55l5.53-19.32c0-10.92-6.7-11.77-14.95-11.77h-0.87c-8.26 0-14.96 0.85-14.96 11.77l5.69 19.32s-2.77 11.31-3.83 21.85c-0.51 5.14-4.17 16.44-4.03 30.74 0.14 15.05 1.33 25.73 1.33 25.73h6.97l1.05-25.14 8.23-19.37-5.36 19.78 2.44 24.98 6.53 0.39c0.07-12.53 1.15-17.63 1.2-25.11 6.59-10.1 10.98-24.43 10.56-32.27-0.51-9.56-5.53-21.58-5.53-21.58" fill="#e29779"/></g>
  <g><path d="m181.5 229.81l1.59 16.31 6.53 0.39c0.03-5.93 0.63-12.14 0.84-16.93l-8.96 0.23" fill="#bce9fa"/></g>
  <g><path d="m168.79 229.81c0.4 9.2 0.97 16.06 0.97 16.06h6.97l0.58-16.06h-8.52" fill="#bce9fa"/></g>
  <g><path d="m201.38 148.23c0-7.44-3.11-10.19-7.7-11.2-1.16 2.67-3.63 4.73-7.42 4.73-3.85 0-6.33-2.11-7.46-4.83-4.86 0.92-8.2 3.6-8.2 11.3l3.7 19.32s-1.11 7.4-2.82 15.85h29.16c-1.53-8.04-2.82-15.85-2.82-15.85l3.56-19.32" fill="#96ddf8"/></g>
  <g><path d="m184.27 212.03h19.33c0.39-1.55-1.88-16.48-2.22-22.9-0.11-2.15-0.47-4.42-0.93-6.66h-28.77c-0.46 2.17-0.86 4.42-1.08 6.66-0.37 3.72-2.56 12.64-3 22.9h16.67" fill="#405882"/></g>
  <g><path d="m193.29 182.47h-14.12v29.56h14.12v-29.56" fill="#4a6798"/></g>
  <g><path d="m176.79 244.79c-0.48 0.13-0.99 0.23-1.52 0.32 0.06-0.14 0.12-0.28 0.12-0.43 0-0.88-1.01-1.59-2.27-1.59h-0.14c-1.25 0-2.27 0.71-2.27 1.59 0 0.18 0.07 0.34 0.14 0.5-0.42-0.05-0.84-0.11-1.24-0.2-0.95 1.65-1.23 3.88-1.23 6.57 0 4.99 2.09 9.04 4.67 9.04 2.59 0 4.68-4.05 4.68-9.04 0-2.71 0.03-5.11-0.94-6.76" fill="#4a6798"/></g>
  <g><path d="m189.89 244.79c-0.49 0.13-1 0.23-1.52 0.32 0.06-0.14 0.12-0.28 0.12-0.43 0-0.88-1.02-1.59-2.27-1.59h-0.15c-1.25 0-2.27 0.71-2.27 1.59 0 0.18 0.07 0.34 0.15 0.5-0.43-0.05-0.84-0.11-1.24-0.2-0.96 1.65-1.24 3.88-1.24 6.57 0 4.99 2.1 9.04 4.68 9.04s4.67-4.05 4.67-9.04c0-2.71 0.03-5.11-0.93-6.76" fill="#4a6798"/></g>
  <g><path d="m206.9 193.56c4.25-2.31 5.83-7.63 3.52-11.88s-7.63-5.83-11.89-3.52l-34.13 24.18c-4.25 2.31-9.62 4.05-7.31 8.3s7.63 5.83 11.88 3.52l37.93-20.6" fill="#f9ae8f"/></g>
  <g><path d="m223.61 226.81h-10.52v-11.34h10.52v11.34" fill="#e29779"/></g>
  <g><path d="m206.89 205.01c0 1.66-1.34 3.01-3.01 3.01-1.66 0-3-1.35-3-3.01v-1.19c0-1.66 1.34-3.01 3-3.01 1.67 0 3.01 1.35 3.01 3.01v1.19" fill="#e29779"/></g>
  <g><path d="m236.06 205.01c0 1.66-1.34 3.01-3.01 3.01-1.66 0-3-1.35-3-3.01v-1.19c0-1.66 1.34-3.01 3-3.01 1.67 0 3.01 1.35 3.01 3.01v1.19" fill="#e29779"/></g>
  <g><path d="m233.05 206.43c0 8.12-6.58 14.71-14.7 14.71s-14.71-6.59-14.71-14.71v-11.25c0-8.12 6.59-14.7 14.71-14.7s14.7 6.58 14.7 14.7v11.25" fill="#f9ae8f"/></g>
  <g><path d="m203.64 191.86v8.95s4.12-0.32 5.71-8.16c-5.96-7.67-5.71-0.79-5.71-0.79" fill="#a3642b"/></g>
  <g><path d="m233.05 191.86v8.95s-4.11-0.32-5.7-8.16c5.95-7.67 5.7-0.79 5.7-0.79" fill="#a3642b"/></g>
  <g><path d="m203.7 192.23s7 7.07 23.46 5.38c0 0 8.73-1.52 11.25-8.99 0 0-1.66 0.4-9.06-5.69 0 0-9.53-8.33-21.24 0.2 0 0-5.05 3.32-4.41 9.1" fill="#b16e30"/></g>
  <g><path d="m228.67 202.76c-0.15 0-0.3-0.05-0.43-0.15-2.56-1.96-4.91-0.09-5.01-0.01-0.3 0.25-0.75 0.2-1-0.11-0.25-0.3-0.21-0.75 0.1-1 1.14-0.93 4.02-2.12 6.78-0.01 0.31 0.23 0.37 0.68 0.13 1-0.14 0.18-0.35 0.28-0.57 0.28" fill="#b16e30"/></g>
  <g><path d="m227.39 205.46c0 0.89-0.75 1.61-1.66 1.61-0.92 0-1.66-0.72-1.66-1.61s0.74-1.62 1.66-1.62c0.91 0 1.66 0.73 1.66 1.62" fill="#341314"/></g>
  <g><path d="m208.04 202.76c0.14 0 0.3-0.05 0.42-0.15 2.57-1.96 4.92-0.09 5.02-0.01 0.3 0.25 0.75 0.2 1-0.11 0.25-0.3 0.2-0.75-0.1-1-1.15-0.93-4.03-2.12-6.78-0.01-0.31 0.23-0.37 0.68-0.13 1 0.14 0.18 0.35 0.28 0.57 0.28" fill="#b16e30"/></g>
  <g><path d="m209.61 205.46c0 0.89 0.74 1.61 1.66 1.61 0.91 0 1.66-0.72 1.66-1.61s-0.75-1.62-1.66-1.62c-0.92 0-1.66 0.73-1.66 1.62" fill="#341314"/></g>
  <g><path d="m216.39 211.29h2.69l-1.4 1.41z" fill="#e29779"/></g>
  <g><path d="m182.59 231.63c-2.77-0.83-4.33-3.75-3.49-6.52 0.83-2.76 3.75-4.32 6.51-3.49l24.65 7.47c2.76 0.84 4.33 3.75 3.49 6.52-0.84 2.76-3.75 4.32-6.52 3.49l-24.64-7.47" fill="#f9ae8f"/></g>
  <g><path d="m213.75 235.61c-0.84 2.76-3.75 4.32-6.52 3.48l-18.68-5.65c1.09-3.37 1.73-6.8 2.2-10.26l19.51 5.91c2.76 0.84 4.33 3.75 3.49 6.52" fill="#3d3c50"/></g>
  <g><path d="m162.2 210.39c-1.94-2.14-1.77-5.44 0.37-7.38s5.45-1.77 7.39 0.37l17.27 19.1c1.94 2.14 1.77 5.44-0.37 7.38s-5.45 1.77-7.38-0.37l-17.28-19.1" fill="#f9ae8f"/></g>
  <g><path d="m232.86 274.07l2.97-39.46c0-10.68-7.72-11.51-17.26-11.51h-1c-9.53 0-17.26 0.83-17.26 11.51l3.13 39.46h29.42" fill="#3d3c50"/></g>
  <g><path d="m213.84 223.17c-7.74 0.34-13.53 2.2-13.53 11.44l3.13 39.46h10.4v-50.9" fill="#fac023"/></g>
  <g><path d="m222.15 223.16v50.91h10.71l2.97-39.46c0-9.3-5.86-11.13-13.68-11.45" fill="#fac023"/></g>
  <g><path d="m232.86 274.07h-29.37c0.01 0.39 0.05 0.76 0.08 1.13l-0.08-0.06 0.05 62.55 8.11 0.4 6.45-51.49 6.84 51.09 7.69 0.4 0.23-62.95-0.08 0.06c0.03-0.37 0.07-0.74 0.08-1.13" fill="#f9ae8f"/></g>
  <g><path d="m202.01 304.56h15.1l0.99-17.96 0.99 17.96h15.18l-1.41-29.42-0.08 0.06c0.03-0.37 0.07-0.74 0.08-1.13h-29.37c0.01 0.39 0.05 0.76 0.08 1.13l-0.08-0.06-1.48 29.42" fill="#4a6798"/></g>
  <g><path d="m236.82 340.75c0.06-0.39 0.1-0.8 0.1-1.21 0-4.45-3.6-8.05-8.05-8.05-4.44 0-8.04 3.6-8.04 8.05 0 0.41 0.04 0.82 0.1 1.21h15.89" fill="#131517"/></g>
  <g><path d="m214.82 340.75c0.06-0.39 0.11-0.8 0.11-1.21 0-4.45-3.61-8.05-8.05-8.05-4.45 0-8.05 3.6-8.05 8.05 0 0.41 0.05 0.82 0.11 1.21h15.88" fill="#131517"/></g>
 </g>
</svg>