<?xml version="1.0" encoding="UTF-8"?><svg xmlns="http://www.w3.org/2000/svg" xmlns:xlink="http://www.w3.org/1999/xlink" height="267.4" preserveAspectRatio="xMidYMid meet" version="1.1" viewBox="99.6 73.9 235.9 267.4" width="235.9" zoomAndPan="magnify">
 <g id="surface1">
  <g id="change1_1"><path d="m308.05 212.92c-27.47 34.14-77.41 39.54-111.54 12.08s-39.55-77.4-12.08-111.54c27.46-34.132 77.4-39.538 111.53-12.07 34.14 27.46 39.55 77.4 12.09 111.53" fill="#339c50"/></g>
  <g id="change2_1"><path d="m294.55 202.07c-21.46 26.68-60.5 30.91-87.19 9.44-26.68-21.47-30.91-60.51-9.44-87.19 21.47-26.683 60.51-30.914 87.19-9.44 26.68 21.46 30.91 60.5 9.44 87.19" fill="#fff"/></g>
  <g id="change1_2"><path d="m118.23 341.34l-18.601-14.97 89.801-111.61 18.6 14.96-89.8 111.62" fill="#339c50"/></g>
  <g id="change3_1"><path d="m191.28 259c-1.73 2.15-4.88 2.49-7.03 0.77l-18.82-15.15c-2.15-1.73-2.49-4.87-0.76-7.02l6.44-8.01c1.73-2.14 4.87-2.49 7.03-0.76l18.82 15.14c2.15 1.73 2.49 4.88 0.76 7.03l-6.44 8" fill="#f9ad30"/></g>
  <g id="change3_2"><path d="m245.55 117.75c-9.66 0-19.49 6.11-22.85 14.21-1.34 3.23 0.19 6.94 3.42 8.27 3.23 1.34 6.94-0.19 8.27-3.42 1.26-3.03 6.15-6.4 11.16-6.4 8.91 0 13.42 5.04 13.42 14.97 0 6.26-4.67 10.23-11.79 15.57-2.84 2.13-5.53 4.15-7.69 6.5-1.87 2.04-2.25 3.65-2.06 16.09 0.05 3.46 2.88 6.24 6.33 6.24h0.1c3.49-0.06 6.28-2.94 6.23-6.43-0.07-4.69-0.03-7.25 0.03-8.6 1.3-1.15 2.94-2.39 4.66-3.67 7.11-5.34 16.86-12.64 16.86-25.7 0-17.04-10-27.63-26.09-27.63" fill="#f9ad30"/></g>
  <g id="change3_3"><path d="m244.15 192.58c-4.84 0-8.77 3.93-8.77 8.78s3.93 8.78 8.77 8.78c4.85 0 8.78-3.93 8.78-8.78s-3.93-8.78-8.78-8.78" fill="#f9ad30"/></g>
 </g>
</svg>