<?xml version="1.0" encoding="UTF-8"?><svg xmlns="http://www.w3.org/2000/svg" xmlns:xlink="http://www.w3.org/1999/xlink" height="307.2" preserveAspectRatio="xMidYMid meet" version="1.1" viewBox="114.7 59.1 195.8 307.2" width="195.8" zoomAndPan="magnify">
 <g id="surface1">
  <g id="change1_1"><path d="m310.5 333.89c-8.3 6.19-17.21 11.61-26.63 16.16-1.42 0.7-2.86 1.36-4.32 2.01-20.44 9.16-43.1 14.26-66.95 14.26s-46.51-5.1-66.96-14.26c-1.45-0.65-2.89-1.32-4.32-2.01-9.41-4.55-18.32-9.98-26.62-16.16 1.46-32.44 18.69-60.78 44.22-77.51 15.42-10.12 33.86-16 53.68-16 3.02 0 6.01 0.14 8.96 0.41 16.41 1.48 31.65 7.01 44.72 15.59 11.75 7.7 21.74 17.86 29.24 29.75 8.8 13.94 14.19 30.25 14.98 47.76" fill="#c993cf"/></g>
  <g id="change2_1"><path d="m153.59 322.9c-4.72 8.84-7.35 18.41-7.8 28.46-0.01 0.25-0.06 0.48-0.15 0.7-1.45-0.65-2.89-1.32-4.32-2.01 0.62-10.33 3.4-20.18 8.28-29.29 0.6-1.1 1.97-1.52 3.07-0.92 1.1 0.59 1.52 1.96 0.92 3.06" fill="#4e46a4"/></g>
  <g id="change2_2"><path d="m279.55 352.06c-0.07-0.22-0.12-0.45-0.14-0.7-0.43-9.72-2.91-19-7.36-27.61-0.57-1.11-0.14-2.48 0.97-3.05s2.48-0.14 3.05 0.97c4.59 8.86 7.21 18.4 7.8 28.38l-4.32 2.01" fill="#4e46a4"/></g>
  <g id="change3_1"><path d="m252.41 285.91c-9.89 10.72-24.07 17.44-39.81 17.44-27.48 0-50.17-20.46-53.68-46.97 15.42-10.12 33.86-16 53.68-16 3.02 0 6.01 0.14 8.96 0.41l-18.76 8.67-1.6 3.92s11.76 25.33 51.21 32.53" fill="#e2c6e6"/></g>
  <g id="change2_3"><path d="m295.52 286.13c-17 2.42-31.25 1.94-43.11-0.22 7.38-8 12.37-18.21 13.87-29.53 11.75 7.7 21.74 17.86 29.24 29.75" fill="#4e46a4"/></g>
  <g id="change4_1"><path d="m266.28 256.38c-1.5 11.32-6.49 21.53-13.87 29.53-39.45-7.2-51.21-32.53-51.21-32.53l1.6-3.92 18.76-8.67c0.51 0.04 1.03 0.09 1.53 0.15 0.32 0.03 0.64 0.07 0.95 0.11 0.35 0.03 0.7 0.07 1.05 0.12 0.21 0.03 0.43 0.06 0.65 0.09 0.31 0.04 0.63 0.08 0.95 0.13 0.25 0.03 0.5 0.07 0.75 0.11 0.21 0.03 0.43 0.06 0.64 0.1 0.36 0.05 0.72 0.11 1.08 0.18 1.56 0.26 3.11 0.56 4.63 0.9 0.35 0.08 0.69 0.15 1.03 0.23 0.2 0.04 0.39 0.09 0.59 0.14 0.36 0.09 0.73 0.18 1.09 0.27l0.16 0.04c0.46 0.11 0.91 0.23 1.37 0.35 0.49 0.13 0.97 0.26 1.44 0.4 0.55 0.15 1.08 0.31 1.62 0.48 0.42 0.12 0.84 0.25 1.25 0.39 0.27 0.08 0.55 0.16 0.81 0.25 0.43 0.15 0.87 0.29 1.3 0.44 0.53 0.19 1.06 0.37 1.58 0.56l0.11 0.04c0.54 0.19 1.07 0.39 1.61 0.6 0.4 0.15 0.81 0.31 1.21 0.48 1.05 0.42 2.09 0.85 3.12 1.31 0.44 0.2 0.89 0.4 1.34 0.6l1.23 0.57c0.37 0.18 0.73 0.35 1.1 0.53 0.33 0.16 0.66 0.33 0.99 0.5 0.22 0.11 0.44 0.23 0.66 0.34 0.88 0.45 1.75 0.91 2.61 1.39 0.31 0.17 0.62 0.34 0.93 0.52 0.2 0.11 0.39 0.23 0.58 0.34l0.73 0.42c0.41 0.24 0.82 0.49 1.22 0.73 0.46 0.28 0.91 0.55 1.35 0.84 0.49 0.31 0.98 0.62 1.46 0.94" fill="#2d3191"/></g>
  <g id="change5_1"><path d="m225.29 224.5v24.97c0 6.31-5.17 11.48-11.48 11.48h-2.42c-6.31 0-11.48-5.17-11.48-11.48v-24.97c0-6.31 5.17-11.47 11.48-11.47h2.42c6.31 0 11.48 5.16 11.48 11.47" fill="#f9ad8b"/></g>
  <g id="change4_2"><path d="m225.29 224.5v15.77c-0.72 0.07-1.45 0.11-2.18 0.11h-4.39c-8.29 0-15.48-4.92-18.81-11.97v-3.91c0-6.31 5.17-11.47 11.48-11.47h2.42c6.31 0 11.48 5.16 11.48 11.47" fill="#2d3191"/></g>
  <g id="change5_2"><path d="m306.77 157.29c0 8.44-6.84 15.28-15.28 15.28s-15.29-6.84-15.29-15.28 6.85-15.28 15.29-15.28 15.28 6.84 15.28 15.28" fill="#f9ad8b"/></g>
  <g id="change4_3"><path d="m297.71 157.86c0 5.94-4.81 10.75-10.75 10.75s-10.76-4.81-10.76-10.75 4.82-10.76 10.76-10.76 10.75 4.82 10.75 10.76" fill="#2d3191"/></g>
  <g id="change5_3"><path d="m116.97 157.29c0 8.44 6.84 15.28 15.28 15.28s15.29-6.84 15.29-15.28-6.85-15.28-15.29-15.28-15.28 6.84-15.28 15.28" fill="#f9ad8b"/></g>
  <g id="change4_4"><path d="m126.02 157.86c0 5.94 4.82 10.75 10.76 10.75s10.76-4.81 10.76-10.75-4.82-10.76-10.76-10.76-10.76 4.82-10.76 10.76" fill="#2d3191"/></g>
  <g id="change5_4"><path d="m288.36 156.27c0 40.95-33.2 74.16-74.16 74.16-40.95 0-74.15-33.21-74.15-74.16 0-19.27 7.35-36.82 19.41-50 13.55-14.848 33.06-24.149 54.74-24.149s41.19 9.301 54.74 24.149c12.08 13.18 19.42 30.73 19.42 50" fill="#f9ad8b"/></g>
  <g id="change6_1"><path d="m186.56 190.89s0.81-5.04 6.82-9.1c4.05-2.75 10.49-3.6 20.65-3.6 4.51 0 8.54-0.15 11.75 0.33 14.83 2.25 15.72 12.37 15.72 12.37h-54.94" fill="#fae6e0"/></g>
  <g id="change6_2"><path d="m268.94 103.21c-13.55 14.83-33.06 24.13-54.74 24.13s-41.18-9.3-54.74-24.13c13.55-14.847 33.06-24.148 54.74-24.148s41.19 9.301 54.74 24.148" fill="#fae6e0"/></g>
  <g id="change4_5"><path d="m203.37 174.56s9.62 9.81 21.32 0c0 0-10 6.72-21.32 0" fill="#2d3191"/></g>
  <g id="change7_1"><path d="m244.21 160.62c-1.53 0-2.78-1.25-2.78-2.79v-3.11c0-1.54 1.25-2.79 2.78-2.79 1.54 0 2.8 1.25 2.8 2.79v3.11c0 1.54-1.26 2.79-2.8 2.79" fill="#1a122a"/></g>
  <g id="change6_3"><path d="m238.98 151.89l-0.44-0.59 0.43 0.6 0.01-0.01-0.44-0.59 0.43 0.6s0.14-0.1 0.41-0.25c0.82-0.46 2.82-1.36 5.81-1.36 2.25 0 5.08 0.51 8.45 2.16 0.71 0.35 1.56 0.05 1.9-0.65s0.05-1.55-0.65-1.89c-3.73-1.83-7.02-2.45-9.7-2.45-4.92 0-7.74 2.04-7.9 2.16-0.63 0.46-0.76 1.35-0.29 1.98 0.46 0.63 1.35 0.76 1.98 0.29" fill="#fae6e0"/></g>
  <g id="change6_4"><path d="m231.2 146.44s16.35-17.85 32.74-5.56c0 0-17.55-1.61-32.74 5.56" fill="#fae6e0"/></g>
  <g id="change7_2"><path d="m181.32 160.62c1.54 0 2.79-1.25 2.79-2.79v-3.11c0-1.54-1.25-2.79-2.79-2.79-1.53 0-2.79 1.25-2.79 2.79v3.11c0 1.54 1.26 2.79 2.79 2.79" fill="#1a122a"/></g>
  <g id="change6_5"><path d="m188.24 149.62c-0.15-0.12-2.97-2.16-7.89-2.16-2.69 0-5.97 0.62-9.71 2.45-0.7 0.34-0.99 1.19-0.64 1.89 0.34 0.7 1.19 1 1.89 0.65 3.38-1.65 6.21-2.16 8.46-2.16 2.06 0 3.64 0.43 4.7 0.84 0.53 0.21 0.93 0.42 1.18 0.56 0.13 0.07 0.22 0.13 0.28 0.17l0.05 0.03 0.01 0.01 0.42-0.59-0.43 0.58 0.01 0.01 0.42-0.59-0.43 0.58c0.63 0.47 1.51 0.34 1.98-0.29 0.46-0.63 0.33-1.52-0.3-1.98" fill="#fae6e0"/></g>
  <g id="change6_6"><path d="m194.34 146.44s-19.39-20.18-32.74-5.56c0 0 17.54-1.61 32.74 5.56" fill="#fae6e0"/></g>
  <g id="change4_6"><path d="m241.43 190.69s-0.82 5.04-6.82 9.1c-4.06 2.75-10.5 5.05-20.66 5.05-4.51 0-8.29-0.45-11.44-1.2-14.5-3.41-16.03-12.95-16.03-12.95h54.95" fill="#2d3191"/></g>
  <g id="change8_1"><path d="m214.03 190.69h-24.07c0.38 1.56 1.28 3.69 3.29 5.1 1.62 1.13 10.99 1.64 20.78 1.74 9.79-0.1 19.16-0.61 20.78-1.74 2.01-1.41 2.91-3.54 3.29-5.1h-24.07" fill="#fff"/></g>
  <g id="change9_1"><path d="m234.61 199.79c-4.06 2.75-10.5 5.05-20.66 5.05-4.51 0-8.29-0.45-11.44-1.2 7.06-3.18 18.73-6.7 32.1-3.85" fill="#c8374e"/></g>
  <g id="change6_7"><path d="m196.45 83.758s-24.76-3.613-27.09-24.641c0 0-13.1 12.86-5.33 24.641 0 0-8.33-5.36-6.67-15 0 0-11.92 21 5.87 38.172l30.42-20.84 2.8-2.332" fill="#fae6e0"/></g>
 </g>
</svg>