<?xml version="1.0" encoding="UTF-8"?><svg xmlns="http://www.w3.org/2000/svg" height="425.2pt" version="1.1" viewBox="0 0 425.2 425.2" width="425.2pt">
 <g id="surface1">
  <g id="change1_1"><path d="m157.48 319h106.21c0.08-1.49 0.13-85.89 0.14-87.4h0.03v-13.59c0-26.71-14.84-48.35-33.13-48.35h-40.28c-18.3 0-33.13 21.64-33.13 48.35v13.59h0.02c0.02 1.51 0.07 85.91 0.14 87.4" fill="#f7991e"/></g>
  <path d="m1574.8 1062h1062.1c0.8 14.9 1.3 858.9 1.4 874h0.3v135.9c0 267.1-148.4 483.5-331.3 483.5h-402.8c-183 0-331.3-216.4-331.3-483.5v-135.9h0.2c0.2-15.1 0.7-859.1 1.4-874zm0 0" fill="none" stroke="#2f3032" stroke-linecap="round" stroke-linejoin="round" stroke-miterlimit="10" stroke-width="60" transform="matrix(.1 0 0 -.1 0 425.2)"/>
  <g id="change2_1"><path d="m263.74 277.82c-0.4 34.95-23.76 63.14-52.53 63.14h-1.24c-28.77 0-52.13-28.19-52.53-63.14h-0.03v-11.33c0-22.27 14.8-40.31 33.07-40.31h40.21c18.27 0 33.08 18.04 33.08 40.31v11.33h-0.03" fill="#92afc9"/></g>
  <path d="m2637.4 1473.8c-4-349.5-237.6-631.45-525.3-631.45h-12.4c-287.7 0-521.3 281.95-525.3 631.45h-0.3v113.3c0 222.7 148 403.1 330.7 403.1h402.1c182.7 0 330.8-180.4 330.8-403.1v-113.3zm0 0" fill="none" stroke="#2f3032" stroke-linecap="round" stroke-linejoin="round" stroke-miterlimit="10" stroke-width="60" transform="matrix(.1 0 0 -.1 0 425.2)"/>
  <g id="change2_2"><path d="m2499.2 1473.8c-3-349.5-175.8-631.45-388.7-631.45h-9.2c-212.9 0-385.8 281.95-388.7 631.45" fill="#92afc9" stroke="#2f3032" stroke-linecap="round" stroke-linejoin="round" stroke-miterlimit="10" stroke-width="60" transform="matrix(.1 0 0 -.1 0 425.2)"/></g>
  <g id="change3_1"><path d="m221.38 262.41c-0.09 24.52-4.83 44.29-10.67 44.29h-0.25c-5.84 0-10.58-19.77-10.66-44.29v-7.95c0-15.62 3-28.28 6.71-28.28h8.16c3.71 0 6.71 12.66 6.71 28.28v7.95" fill="#fff"/></g>
  <g id="change2_3"><path d="m210.59 84.234l-94.27 53.356 94.27 53.35 94.27-53.35-94.27-53.356" fill="#92afc9"/></g>
  <path d="m2105.9 3409.7l-942.7-533.6 942.7-533.5 942.7 533.5zm0 0" fill="none" stroke="#2f3032" stroke-linecap="round" stroke-linejoin="round" stroke-miterlimit="10" stroke-width="60" transform="matrix(.1 0 0 -.1 0 425.2)"/>
  <g id="change3_2"><path d="m256.31 182.72h-3.53v-18.9c0-14.48-11.75-26.23-26.24-26.23h-31.9c-14.49 0-26.24 11.75-26.24 26.23v18.9s0.01 24.23 0.06 24.23c0.9 22.23 31.78 40 41.64 40h0.98c7.26 0 40.74-17.77 41.63-40h0.18c5.05 0 9.16-4.07 9.23-9.11v-9.3c0-3.22-2.6-5.82-5.81-5.82" fill="#fff"/></g>
  <path d="m2563.1 2424.8h-35.3v189c0 144.8-117.5 262.3-262.4 262.3h-319c-144.9 0-262.4-117.5-262.4-262.3v-189s0.1-242.3 0.6-242.3c9-222.3 317.8-400 416.4-400h9.8c72.6 0 407.4 177.7 416.3 400h1.8c50.5 0 91.6 40.7 92.3 91.1v0 93c0 32.2-26 58.2-58.1 58.2zm0 0" fill="none" stroke="#2f3032" stroke-linecap="round" stroke-linejoin="round" stroke-miterlimit="10" stroke-width="60" transform="matrix(.1 0 0 -.1 0 425.2)"/>
  <g id="change1_2"><path d="m252.78 169.18v-5.36c0-14.48-11.75-26.23-26.24-26.23h-31.9c-14.49 0-26.24 17.57-26.24 32.07 0 0-16.65 18.87 0 42.08 12.1-43.81 84.38-42.56 84.38-42.56" fill="#f7991e"/></g>
  <path d="m2527.8 2560.2v53.6c0 144.8-117.5 262.3-262.4 262.3h-319c-144.9 0-262.4-175.7-262.4-320.7 0 0-166.5-188.7 0-420.8 121 438.1 843.8 425.6 843.8 425.6zm0 0" fill="none" stroke="#2f3032" stroke-linecap="round" stroke-linejoin="round" stroke-miterlimit="10" stroke-width="60" transform="matrix(.1 0 0 -.1 0 425.2)"/>
  <g id="change1_3"><path d="m168.4 169.18v-5.36c0-14.48 11.75-26.23 26.24-26.23h31.9c14.49 0 26.24 17.57 26.24 32.07 0 0 4.76 5.39 6.65 13.97 0.93 4.25-91.03-14.45-91.03-14.45" fill="#f7991e"/></g>
  <path d="m1684 2560.2v53.6c0 144.8 117.5 262.3 262.4 262.3h319c144.9 0 262.4-175.7 262.4-320.7 0 0 47.6-53.9 66.5-139.7 9.3-42.5-910.3 144.5-910.3 144.5zm0 0" fill="none" stroke="#2f3032" stroke-linecap="round" stroke-linejoin="round" stroke-miterlimit="10" stroke-width="60" transform="matrix(.1 0 0 -.1 0 425.2)"/>
  <g id="change4_1"><path d="m204.36 222.33c0.13 3.32 2.86 5.97 6.21 5.97h0.14c3.35 0 6.08-2.65 6.21-5.97h0.03-12.59" fill="#e93080"/></g>
  <g id="change2_4"><path d="m252.78 169.66v-5.84c0-14.48-11.75-26.23-26.24-26.23h-31.9c-14.49 0-26.24 11.75-26.24 26.23v5.84h84.38" fill="#92afc9"/></g>
  <path d="m2527.8 2555.4v58.4c0 144.8-117.5 262.3-262.4 262.3h-319c-144.9 0-262.4-117.5-262.4-262.3v-58.4zm0 0" fill="none" stroke="#2f3032" stroke-linecap="round" stroke-linejoin="round" stroke-miterlimit="10" stroke-width="60" transform="matrix(.1 0 0 -.1 0 425.2)"/>
  <path d="m3008.4 2876.1v-631.7" fill="none" stroke="#2f3032" stroke-linecap="round" stroke-linejoin="round" stroke-miterlimit="10" stroke-width="60" transform="matrix(.1 0 0 -.1 0 425.2)"/>
  <g id="change1_4"><path d="m308.88 209.02c-0.07-4.57-3.79-8.26-8.37-8.26h-0.2c-4.58 0-8.31 3.69-8.37 8.26v8.43c0 2.91 2.36 5.27 5.27 5.27h6.4c2.91 0 5.27-2.36 5.27-5.27v-8.43" fill="#f7991e"/></g>
  <path d="m3088.8 2161.8c-0.7 45.7-37.9 82.6-83.7 82.6h-2c-45.8 0-83.1-36.9-83.7-82.6v0-84.3c0-29.1 23.6-52.7 52.7-52.7h64c29.1 0 52.7 23.6 52.7 52.7v84.3zm0 0" fill="none" stroke="#2f3032" stroke-linecap="round" stroke-linejoin="round" stroke-miterlimit="10" stroke-width="60" transform="matrix(.1 0 0 -.1 0 425.2)"/>
  <path d="m1938.5 2366.7v-48.3" fill="none" stroke="#2f3032" stroke-linecap="round" stroke-linejoin="round" stroke-miterlimit="10" stroke-width="60" transform="matrix(.1 0 0 -.1 0 425.2)"/>
  <path d="m2273.3 2366.7v-48.3" fill="none" stroke="#2f3032" stroke-linecap="round" stroke-linejoin="round" stroke-miterlimit="10" stroke-width="60" transform="matrix(.1 0 0 -.1 0 425.2)"/>
  <path d="m2077.7 2136.4c21.5-21.5 56.4-21.5 77.9 0" fill="none" stroke="#2f3032" stroke-linecap="round" stroke-linejoin="round" stroke-miterlimit="10" stroke-width="60" transform="matrix(.1 0 0 -.1 0 425.2)"/>
  <path d="m2077.7 2136.4v135.6" fill="none" stroke="#2f3032" stroke-linecap="round" stroke-linejoin="round" stroke-miterlimit="10" stroke-width="60" transform="matrix(.1 0 0 -.1 0 425.2)"/>
 </g>
</svg>