<?xml version="1.0" encoding="UTF-8"?><svg xmlns="http://www.w3.org/2000/svg" height="425.2pt" version="1.1" viewBox="0 0 425.2 425.2" width="425.2pt">
 <g id="surface1">
  <g id="change1_1"><path d="m283.21 269.91c-0.55 39.18-32.46 70.78-71.77 70.78h-1.7c-39.31 0-71.22-31.6-71.78-70.78h-0.03v-12.71c0-24.95 20.23-45.18 45.19-45.18h54.94c24.96 0 45.19 20.23 45.19 45.18v12.71h-0.04" fill="#92afc9"/></g>
  <path d="m2832.1 1552.9c-5.5-391.8-324.6-707.81-717.7-707.81h-17c-393.1 0-712.2 316.01-717.8 707.81h-0.3v127.1c0 249.5 202.3 451.8 451.9 451.8h549.4c249.6 0 451.9-202.3 451.9-451.8v-127.1zm0 0" fill="none" stroke="#2f3032" stroke-linecap="round" stroke-linejoin="round" stroke-miterlimit="10" stroke-width="60" transform="matrix(.1 0 0 -.1 0 425.2)"/>
  <g id="change1_2"><path d="m2643.3 1552.9c-4-391.8-240.2-707.81-531.1-707.81h-12.6c-290.9 0-527 316.01-531.1 707.81" fill="#92afc9" stroke="#2f3032" stroke-linecap="round" stroke-linejoin="round" stroke-miterlimit="10" stroke-width="60" transform="matrix(.1 0 0 -.1 0 425.2)"/></g>
  <g id="change2_1"><path d="m231.11 268.55c-0.16 38.26-9.18 69.12-20.28 69.12h-0.48c-11.11 0-20.12-30.86-20.28-69.12h-0.01v-12.41c0-24.37 5.72-44.12 12.77-44.12h15.52c7.05 0 12.76 19.75 12.76 44.12v12.41" fill="#fff"/></g>
  <g id="change3_1"><path d="m214.55 268.55c-0.03 38.26-1.77 69.12-3.91 69.12h-0.09c-2.16 0-3.9-30.86-3.93-69.12v-12.41c0-24.37 1.11-44.12 2.47-44.12h3c1.36 0 2.47 19.75 2.47 44.12v12.41h-0.01" fill="#2f3032"/></g>
  <g id="change1_3"><path d="m210.59 84.508l-94.27 53.352 94.27 53.35 94.27-53.35-94.27-53.352" fill="#92afc9"/></g>
  <path d="m2105.9 3406.9l-942.7-533.5 942.7-533.5 942.7 533.5zm0 0" fill="none" stroke="#2f3032" stroke-linecap="round" stroke-linejoin="round" stroke-miterlimit="10" stroke-width="60" transform="matrix(.1 0 0 -.1 0 425.2)"/>
  <g id="change2_2"><path d="m256.31 183h-3.53v-18.9c0-14.49-11.75-26.24-26.24-26.24h-31.9c-14.49 0-26.24 11.75-26.24 26.24v18.9h-3.53c-3.21 0-5.81 2.6-5.81 5.81v9.3c0.07 5.04 4.17 9.11 9.23 9.11h0.17c0.9 22.24 19.18 40 41.64 40h0.98c22.46 0 40.74-17.76 41.63-40h0.18c5.05 0 9.16-4.07 9.23-9.11v-9.3c0-3.21-2.6-5.81-5.81-5.81" fill="#fff"/></g>
  <path d="m2563.1 2422h-35.3v189c0 144.9-117.5 262.4-262.4 262.4h-319c-144.9 0-262.4-117.5-262.4-262.4v-189h-35.3c-32.1 0-58.1-26-58.1-58.1v-93 0c0.7-50.4 41.7-91.1 92.3-91.1h1.7c9-222.4 191.8-400 416.4-400h9.8c224.6 0 407.4 177.6 416.3 400h1.8c50.5 0 91.6 40.7 92.3 91.1v0 93c0 32.1-26 58.1-58.1 58.1zm0 0" fill="none" stroke="#2f3032" stroke-linecap="round" stroke-linejoin="round" stroke-miterlimit="10" stroke-width="60" transform="matrix(.1 0 0 -.1 0 425.2)"/>
  <g id="change3_2"><path d="m201.39 221c0.2 4.88 4.21 8.78 9.14 8.78h0.21c4.93 0 8.95-3.9 9.14-8.78h0.04-18.53" fill="#2f3032"/></g>
  <g id="change1_4"><path d="m252.78 178.34v-14.24c0-14.49-11.75-26.24-26.24-26.24h-31.9c-14.49 0-26.24 11.75-26.24 26.24v14.24h84.38" fill="#92afc9"/></g>
  <path d="m2527.8 2468.6v142.4c0 144.9-117.5 262.4-262.4 262.4h-319c-144.9 0-262.4-117.5-262.4-262.4v-142.4zm0 0" fill="none" stroke="#2f3032" stroke-linecap="round" stroke-linejoin="round" stroke-miterlimit="10" stroke-width="60" transform="matrix(.1 0 0 -.1 0 425.2)"/>
  <path d="m3008.4 2873.4v-631.8" fill="none" stroke="#2f3032" stroke-linecap="round" stroke-linejoin="round" stroke-miterlimit="10" stroke-width="60" transform="matrix(.1 0 0 -.1 0 425.2)"/>
  <g id="change4_1"><path d="m308.88 209.29c-0.07-4.57-3.79-8.25-8.37-8.25h-0.2c-4.58 0-8.3 3.68-8.37 8.25v8.44c0 2.91 2.36 5.27 5.27 5.27h6.4c2.91 0 5.27-2.36 5.27-5.27v-8.44" fill="#f7991e"/></g>
  <path d="m3088.8 2159.1c-0.7 45.7-37.9 82.5-83.7 82.5h-2c-45.8 0-83-36.8-83.7-82.5v0-84.4c0-29.1 23.6-52.7 52.7-52.7h64c29.1 0 52.7 23.6 52.7 52.7v84.4zm0 0" fill="none" stroke="#2f3032" stroke-linecap="round" stroke-linejoin="round" stroke-miterlimit="10" stroke-width="60" transform="matrix(.1 0 0 -.1 0 425.2)"/>
  <g id="change3_3"><path d="m219.06 256.2c-0.07-4.57-3.79-8.25-8.37-8.25h-0.2c-4.58 0-8.3 3.68-8.37 8.25v8.44c0 2.91 2.36 5.27 5.27 5.27h6.4c2.91 0 5.27-2.36 5.27-5.27v-8.44" fill="#2f3032"/></g>
  <path d="m1888.5 2364v-48.3" fill="none" stroke="#2f3032" stroke-linecap="round" stroke-linejoin="round" stroke-miterlimit="10" stroke-width="60" transform="matrix(.1 0 0 -.1 0 425.2)"/>
  <path d="m2323.4 2364v-48.3" fill="none" stroke="#2f3032" stroke-linecap="round" stroke-linejoin="round" stroke-miterlimit="10" stroke-width="60" transform="matrix(.1 0 0 -.1 0 425.2)"/>
  <path d="m2077.7 2153.6c21.5-21.5 56.4-21.5 77.9 0" fill="none" stroke="#2f3032" stroke-linecap="round" stroke-linejoin="round" stroke-miterlimit="10" stroke-width="60" transform="matrix(.1 0 0 -.1 0 425.2)"/>
  <path d="m2077.7 2153.6v135.6" fill="none" stroke="#2f3032" stroke-linecap="round" stroke-linejoin="round" stroke-miterlimit="10" stroke-width="60" transform="matrix(.1 0 0 -.1 0 425.2)"/>
 </g>
</svg>